<?xml version="1.0" standalone="no"?>
<!DOCTYPE svg PUBLIC "-//W3C//DTD SVG 20010904//EN"
 "http://www.w3.org/TR/2001/REC-SVG-20010904/DTD/svg10.dtd">
<svg version="1.0" xmlns="http://www.w3.org/2000/svg"
 width="82.000000pt" height="84.000000pt" viewBox="0 0 82.000000 84.000000"
 preserveAspectRatio="xMidYMid meet">

<g transform="translate(0.000000,84.000000) scale(0.100000,-0.100000)"
fill="#000000" stroke="none">
<path d="M293 805 c-239 -74 -358 -352 -246 -572 34 -69 127 -157 200 -191 51
-23 71 -26 163 -27 93 0 111 3 160 26 30 14 77 43 103 63 l48 37 41 -36 c23
-19 45 -35 50 -35 4 0 8 91 8 203 0 226 -7 264 -62 357 -42 70 -133 143 -211
170 -71 23 -188 26 -254 5z m181 -197 c61 -18 121 -83 134 -144 13 -63 2 -124
-31 -168 -87 -113 -254 -109 -334 7 -24 35 -28 50 -28 112 0 62 4 77 27 111
54 78 142 109 232 82z"/>
</g>
</svg>
